<?xml version="1.0" encoding="UTF-8" standalone="no"?>
<svg
   viewBox="0 0 700 700"
   version="1.1"
   id="svg1"
   sodipodi:docname="logo.svg"
   inkscape:version="1.3.2 (091e20e, 2023-11-25, custom)"
   width="700"
   height="700"
   xmlns:inkscape="http://www.inkscape.org/namespaces/inkscape"
   xmlns:sodipodi="http://sodipodi.sourceforge.net/DTD/sodipodi-0.dtd"
   xmlns="http://www.w3.org/2000/svg"
   xmlns:svg="http://www.w3.org/2000/svg">
  <defs
     id="defs1" />
  <sodipodi:namedview
     id="namedview1"
     pagecolor="#ffffff"
     bordercolor="#000000"
     borderopacity="0.25"
     inkscape:showpageshadow="2"
     inkscape:pageopacity="0.0"
     inkscape:pagecheckerboard="0"
     inkscape:deskcolor="#d1d1d1"
     inkscape:zoom="0.93372114"
     inkscape:cx="279.52671"
     inkscape:cy="334.68237"
     inkscape:window-width="1920"
     inkscape:window-height="1051"
     inkscape:window-x="-9"
     inkscape:window-y="-9"
     inkscape:window-maximized="1"
     inkscape:current-layer="svg1" />
  <!--!Font Awesome Free 6.6.0 by @fontawesome - https://fontawesome.com License - https://fontawesome.com/license/free Copyright 2024 Fonticons, Inc.-->
  <g
     id="g1"
     transform="translate(-68.530489,-43.981538)">
    <path
       d="m 421.93049,223.19999 -96.8,78.4 c -16.1,13 -19.2,36.4 -7,53.1 12.9,17.8 38,21.3 55.3,7.8 l 99.3,-77.2 c 7,-5.4 17,-4.2 22.5,2.8 5.5,7 4.2,17 -2.8,22.5 l -20.9,16.2 177.2,163.2 h 41.8 c 26.5,0 48,-21.5 48,-48 v -128 c 0,-26.5 -21.5,-48 -48,-48 h -76 -4 -0.7 l -3.9,-2.5 -72.6,-46.5 c -15.3,-9.8 -33.2,-15 -51.4,-15 -21.8,0 -43,7.5 -60,21.2 z m 22.8,124.4 -51.7,40.2 c -31.5,24.6 -77.2,18.2 -100.8,-14.2 -22.2,-30.5 -16.6,-73.1 12.7,-96.8 l 83.2,-67.3 c -11.6,-4.9 -24.1,-7.4 -36.8,-7.4 -18.8,-0.1 -37.1,5.5 -52.8,15.9 l -72,48 h -80 c -26.5,0 -48.000002,21.5 -48.000002,48 v 128 c 0,26.5 21.500002,48 48.000002,48 h 108.2 l 91.4,83.4 c 19.6,17.9 49.9,16.5 67.8,-3.1 5.5,-6.1 9.2,-13.2 11.1,-20.6 l 17,15.6 c 19.5,17.9 49.9,16.6 67.8,-2.9 4.5,-4.9 7.8,-10.6 9.9,-16.5 19.4,13 45.8,10.3 62.1,-7.5 17.9,-19.5 16.6,-49.9 -2.9,-67.8 z"
       id="path1"
       style="fill:#94e044;fill-opacity:1" />
    <text
       xml:space="preserve"
       style="font-size:475px;font-family:'TinyAPL386 Unicode';-inkscape-font-specification:'TinyAPL386 Unicode';text-align:center;text-anchor:middle;fill:#ea0027;fill-opacity:1"
       x="444.99164"
       y="558.41248"
       id="text1"><tspan
         sodipodi:role="line"
         id="tspan1"
         x="444.99164"
         y="558.41248">#</tspan></text>
  </g>
</svg>
